<svg width="18" height="15" viewBox="0 0 18 15" fill="none" xmlns="http://www.w3.org/2000/svg">
<path d="M16.7506 0.555252L8.99921 11.835L1.2478 0.555252C1.10932 0.353296 0.9234 0.24023 0.729802 0.24023C0.536203 0.24023 0.350287 0.353296 0.211801 0.555252C0.144743 0.653334 0.0914701 0.770405 0.0551014 0.899609C0.0187328 1.02881 0 1.16755 0 1.3077C0 1.44785 0.0187328 1.58658 0.0551014 1.71579C0.0914701 1.84499 0.144743 1.96206 0.211801 2.06014L8.45794 14.0623C8.60276 14.273 8.79698 14.3909 8.99921 14.3909C9.20143 14.3909 9.39566 14.273 9.54047 14.0623L17.7866 2.06246C17.8541 1.9643 17.9078 1.84695 17.9445 1.71731C17.9811 1.58768 18 1.4484 18 1.3077C18 1.16699 17.9811 1.02771 17.9445 0.898082C17.9078 0.76845 17.8541 0.651092 17.7866 0.552936C17.6481 0.350979 17.4622 0.237915 17.2686 0.237915C17.075 0.237915 16.8891 0.350979 16.7506 0.552936V0.555252Z" fill="#4A2628"/>
</svg>
