<svg width="21" height="21" viewBox="0 0 21 21" fill="none" xmlns="http://www.w3.org/2000/svg">
<path d="M13.7812 19.6875H7.21875C3.9375 19.6875 1.3125 17.0625 1.3125 13.7812V7.21875C1.3125 3.9375 3.9375 1.3125 7.21875 1.3125H13.7812C17.0625 1.3125 19.6875 3.9375 19.6875 7.21875V13.7812C19.6875 17.0625 17.0625 19.6875 13.7812 19.6875ZM14.2406 10.0406L11.6156 7.41562C11.4844 7.28437 11.3531 7.21875 11.1562 7.21875C10.9594 7.21875 10.8281 7.28437 10.6969 7.41562C10.4344 7.67812 10.4344 8.07188 10.6969 8.33438L12.2063 9.84375H6.5625C6.16875 9.84375 5.90625 10.1062 5.90625 10.5C5.90625 10.8938 6.16875 11.1562 6.5625 11.1562H12.2063L10.6969 12.6656C10.4344 12.9281 10.4344 13.3219 10.6969 13.5844C10.9594 13.8469 11.3531 13.8469 11.6156 13.5844L14.2406 10.9594C14.3063 10.8938 14.3719 10.8281 14.3719 10.7625C14.4375 10.6312 14.4375 10.4344 14.3719 10.2375C14.3719 10.1719 14.3063 10.1062 14.2406 10.0406Z" fill="white"/>
</svg>
