<svg width="19" height="19" viewBox="0 0 19 19" fill="none" xmlns="http://www.w3.org/2000/svg">
<path d="M12.7812 18.6875H6.21875C2.9375 18.6875 0.3125 16.0625 0.3125 12.7812V6.21875C0.3125 2.9375 2.9375 0.3125 6.21875 0.3125H12.7812C16.0625 0.3125 18.6875 2.9375 18.6875 6.21875V12.7812C18.6875 16.0625 16.0625 18.6875 12.7812 18.6875ZM13.2406 9.04062L10.6156 6.41562C10.4844 6.28437 10.3531 6.21875 10.1562 6.21875C9.95938 6.21875 9.82812 6.28437 9.69687 6.41562C9.43437 6.67812 9.43437 7.07188 9.69687 7.33438L11.2063 8.84375H5.5625C5.16875 8.84375 4.90625 9.10625 4.90625 9.5C4.90625 9.89375 5.16875 10.1562 5.5625 10.1562H11.2063L9.69687 11.6656C9.43437 11.9281 9.43437 12.3219 9.69687 12.5844C9.95937 12.8469 10.3531 12.8469 10.6156 12.5844L13.2406 9.95937C13.3063 9.89375 13.3719 9.82812 13.3719 9.7625C13.4375 9.63125 13.4375 9.43437 13.3719 9.2375C13.3719 9.17188 13.3063 9.10625 13.2406 9.04062Z" fill="white"/>
</svg>
