<svg width="24" height="25" viewBox="0 0 24 25" fill="none" xmlns="http://www.w3.org/2000/svg">
<path d="M15.75 10.7188V6.21875C15.75 5.22419 15.3549 4.27036 14.6516 3.5671C13.9484 2.86384 12.9945 2.46875 12 2.46875C11.0054 2.46875 10.0516 2.86384 9.34833 3.5671C8.64507 4.27036 8.24998 5.22419 8.24998 6.21875V10.7188M19.606 8.72575L20.869 20.7257C20.939 21.3907 20.419 21.9688 19.75 21.9688H4.24998C4.09219 21.9689 3.93613 21.9359 3.79193 21.8718C3.64774 21.8077 3.51863 21.714 3.41301 21.5968C3.30738 21.4796 3.2276 21.3415 3.17884 21.1914C3.13008 21.0413 3.11343 20.8827 3.12999 20.7257L4.39399 8.72575C4.42314 8.44931 4.55361 8.19345 4.76024 8.00751C4.96686 7.82156 5.23501 7.7187 5.51298 7.71875H18.487C19.063 7.71875 19.546 8.15375 19.606 8.72575ZM8.62498 10.7188C8.62498 10.8182 8.58548 10.9136 8.51515 10.9839C8.44482 11.0542 8.34944 11.0938 8.24998 11.0938C8.15053 11.0938 8.05515 11.0542 7.98482 10.9839C7.91449 10.9136 7.87498 10.8182 7.87498 10.7188C7.87498 10.6193 7.91449 10.5239 7.98482 10.4536C8.05515 10.3833 8.15053 10.3438 8.24998 10.3438C8.34944 10.3438 8.44482 10.3833 8.51515 10.4536C8.58548 10.5239 8.62498 10.6193 8.62498 10.7188ZM16.125 10.7188C16.125 10.8182 16.0855 10.9136 16.0152 10.9839C15.9448 11.0542 15.8494 11.0938 15.75 11.0938C15.6505 11.0938 15.5551 11.0542 15.4848 10.9839C15.4145 10.9136 15.375 10.8182 15.375 10.7188C15.375 10.6193 15.4145 10.5239 15.4848 10.4536C15.5551 10.3833 15.6505 10.3438 15.75 10.3438C15.8494 10.3438 15.9448 10.3833 16.0152 10.4536C16.0855 10.5239 16.125 10.6193 16.125 10.7188Z" stroke="#349E00" stroke-width="1.5" stroke-linecap="round" stroke-linejoin="round"/>
</svg>
