<svg width="22" height="22" viewBox="0 0 22 22" fill="none" xmlns="http://www.w3.org/2000/svg">
<path d="M14.5752 9.7554V5.8179C14.5752 4.94766 14.2294 4.11306 13.6141 3.49771C12.9987 2.88235 12.1641 2.53665 11.2939 2.53665C10.4237 2.53665 9.58906 2.88235 8.97371 3.49771C8.35835 4.11306 8.01265 4.94766 8.01265 5.8179V9.7554M17.9492 8.01153L19.0543 18.5115C19.1155 19.0934 18.6605 19.5992 18.0752 19.5992H4.51265C4.37458 19.5993 4.23803 19.5704 4.11186 19.5143C3.98568 19.4583 3.87272 19.3763 3.7803 19.2737C3.68787 19.1711 3.61806 19.0503 3.5754 18.919C3.53273 18.7877 3.51817 18.6488 3.53265 18.5115L4.63865 8.01153C4.66416 7.76964 4.77832 7.54577 4.95912 7.38306C5.13992 7.22036 5.37455 7.13036 5.61778 7.1304H16.97C17.474 7.1304 17.8967 7.51103 17.9492 8.01153ZM8.34078 9.7554C8.34078 9.84243 8.30621 9.92589 8.24467 9.98742C8.18314 10.049 8.09968 10.0835 8.01265 10.0835C7.92563 10.0835 7.84217 10.049 7.78063 9.98742C7.7191 9.92589 7.68453 9.84243 7.68453 9.7554C7.68453 9.66838 7.7191 9.58492 7.78063 9.52338C7.84217 9.46185 7.92563 9.42728 8.01265 9.42728C8.09968 9.42728 8.18314 9.46185 8.24467 9.52338C8.30621 9.58492 8.34078 9.66838 8.34078 9.7554ZM14.9033 9.7554C14.9033 9.84243 14.8687 9.92589 14.8072 9.98742C14.7456 10.049 14.6622 10.0835 14.5752 10.0835C14.4881 10.0835 14.4047 10.049 14.3431 9.98742C14.2816 9.92589 14.247 9.84243 14.247 9.7554C14.247 9.66838 14.2816 9.58492 14.3431 9.52338C14.4047 9.46185 14.4881 9.42728 14.5752 9.42728C14.6622 9.42728 14.7456 9.46185 14.8072 9.52338C14.8687 9.58492 14.9033 9.66838 14.9033 9.7554Z" stroke="white" stroke-width="1.5" stroke-linecap="round" stroke-linejoin="round"/>
</svg>
