<svg width="22" height="25" viewBox="0 0 22 25" fill="none" xmlns="http://www.w3.org/2000/svg">
<path d="M9.17464 23.5948C10.2762 23.5948 11.1691 22.7278 11.1691 21.6583C11.1691 20.5888 10.2762 19.7218 9.17464 19.7218C8.07313 19.7218 7.18018 20.5888 7.18018 21.6583C7.18018 22.7278 8.07313 23.5948 9.17464 23.5948Z" stroke="white" stroke-width="1.5" stroke-miterlimit="10"/>
<path d="M17.3517 23.5948C18.343 23.5948 19.1467 22.7278 19.1467 21.6583C19.1467 20.5888 18.343 19.7218 17.3517 19.7218C16.3603 19.7218 15.5566 20.5888 15.5566 21.6583C15.5566 22.7278 16.3603 23.5948 17.3517 23.5948Z" stroke="white" stroke-width="1.5" stroke-miterlimit="10"/>
<path d="M0 1.64783H2.57652C3.16735 1.6467 3.74314 1.85006 4.22037 2.2284C4.69759 2.60674 5.05142 3.14038 5.23052 3.75191L8.3204 14.7036H7.86516C7.25118 14.7036 6.66235 14.9685 6.22821 15.4401C5.79406 15.9116 5.55016 16.5511 5.55016 17.218C5.55273 17.883 5.79776 18.5199 6.23162 18.9891C6.66549 19.4584 7.25286 19.7218 7.86516 19.7218H17.5513" stroke="white" stroke-width="1.5" stroke-miterlimit="10"/>
<path d="M6.38232 5.52081H21.1414V7.53021L19.2953 14.5578H8.21875" stroke="white" stroke-width="1.5" stroke-miterlimit="10"/>
</svg>
