<svg width="28" height="28" viewBox="0 0 28 28" fill="none" xmlns="http://www.w3.org/2000/svg">
<path d="M12.8335 15.1667C12.8335 14.8573 12.9564 14.5605 13.1752 14.3417C13.394 14.1229 13.6907 14 14.0002 14C14.3096 14 14.6063 14.1229 14.8251 14.3417C15.0439 14.5605 15.1668 14.8573 15.1668 15.1667V18.6667C15.1668 18.9761 15.0439 19.2728 14.8251 19.4916C14.6063 19.7104 14.3096 19.8333 14.0002 19.8333C13.6907 19.8333 13.394 19.7104 13.1752 19.4916C12.9564 19.2728 12.8335 18.9761 12.8335 18.6667V15.1667ZM14.0002 8.75001C13.536 8.75001 13.0909 8.93438 12.7627 9.26257C12.4345 9.59076 12.2502 10.0359 12.2502 10.5C12.2502 10.9641 12.4345 11.4093 12.7627 11.7374C13.0909 12.0656 13.536 12.25 14.0002 12.25C14.4643 12.25 14.9094 12.0656 15.2376 11.7374C15.5658 11.4093 15.7502 10.9641 15.7502 10.5C15.7502 10.0359 15.5658 9.59076 15.2376 9.26257C14.9094 8.93438 14.4643 8.75001 14.0002 8.75001ZM2.3335 14C2.3335 10.9058 3.56266 7.93836 5.75058 5.75043C7.93851 3.56251 10.906 2.33334 14.0002 2.33334C17.0944 2.33334 20.0618 3.56251 22.2497 5.75043C24.4377 7.93836 25.6668 10.9058 25.6668 14C25.6668 17.0942 24.4377 20.0617 22.2497 22.2496C20.0618 24.4375 17.0944 25.6667 14.0002 25.6667C10.906 25.6667 7.93851 24.4375 5.75058 22.2496C3.56266 20.0617 2.3335 17.0942 2.3335 14ZM14.0002 4.66668C11.5248 4.66668 9.15084 5.65001 7.4005 7.40035C5.65016 9.15069 4.66683 11.5247 4.66683 14C4.66683 16.4754 5.65016 18.8493 7.4005 20.5997C9.15084 22.35 11.5248 23.3333 14.0002 23.3333C16.4755 23.3333 18.8495 22.35 20.5998 20.5997C22.3502 18.8493 23.3335 16.4754 23.3335 14C23.3335 11.5247 22.3502 9.15069 20.5998 7.40035C18.8495 5.65001 16.4755 4.66668 14.0002 4.66668Z" fill="#0040FF" fill-opacity="0.62"/>
</svg>
