<svg width="27" height="28" viewBox="0 0 27 28" fill="none" xmlns="http://www.w3.org/2000/svg">
<path d="M7.86962 7.89281C8.09341 7.6693 8.39676 7.54376 8.71304 7.54376C9.02933 7.54376 9.33268 7.6693 9.55647 7.89281L13.4871 11.8235L17.4178 7.89281C17.5271 7.77555 17.6589 7.6815 17.8053 7.61626C17.9517 7.55103 18.1097 7.51595 18.27 7.51313C18.4302 7.5103 18.5894 7.53978 18.738 7.59981C18.8866 7.65983 19.0216 7.74918 19.135 7.86252C19.2483 7.97585 19.3376 8.11085 19.3977 8.25947C19.4577 8.40808 19.4872 8.56726 19.4844 8.72752C19.4815 8.88777 19.4464 9.04582 19.3812 9.19222C19.316 9.33863 19.2219 9.47039 19.1047 9.57966L15.174 13.5103L19.1047 17.441C19.3155 17.6673 19.4303 17.9665 19.4248 18.2757C19.4194 18.5849 19.2941 18.8799 19.0754 19.0986C18.8567 19.3173 18.5617 19.4425 18.2525 19.448C17.9433 19.4535 17.6441 19.3387 17.4178 19.1279L13.4871 15.1972L9.55647 19.1279C9.4472 19.2451 9.31544 19.3392 9.16903 19.4044C9.02263 19.4696 8.86458 19.5047 8.70433 19.5075C8.54407 19.5104 8.38489 19.4809 8.23627 19.4209C8.08766 19.3608 7.95266 19.2715 7.83932 19.1582C7.72599 19.0448 7.63664 18.9098 7.57661 18.7612C7.51658 18.6126 7.4871 18.4534 7.48993 18.2932C7.49276 18.1329 7.52784 17.9749 7.59307 17.8284C7.6583 17.682 7.75236 17.5503 7.86962 17.441L11.8003 13.5103L7.86962 9.57966C7.64611 9.35587 7.52057 9.05252 7.52057 8.73624C7.52057 8.41995 7.64611 8.1166 7.86962 7.89281Z" fill="black"/>
<path fill-rule="evenodd" clip-rule="evenodd" d="M6.03487 0.411836C10.9879 -0.137279 15.9865 -0.137279 20.9396 0.411836C23.847 0.736474 26.1943 3.02645 26.5349 5.94979C27.1237 10.9737 27.1237 16.0486 26.5349 21.0725C26.1927 23.9959 23.8454 26.2843 20.9396 26.6105C15.9865 27.1596 10.9879 27.1596 6.03487 26.6105C3.12744 26.2843 0.780178 23.9959 0.439626 21.0725C-0.146542 16.0487 -0.146542 10.9737 0.439626 5.94979C0.780178 3.02645 3.12904 0.736474 6.03487 0.411836ZM20.6754 2.78297C15.8979 2.25341 11.0765 2.25341 6.29904 2.78297C5.41462 2.88109 4.58912 3.2745 3.95587 3.89966C3.32263 4.52482 2.91864 5.3452 2.80917 6.22828C2.24317 11.0676 2.24317 15.9564 2.80917 20.7956C2.91898 21.6784 3.32311 22.4985 3.95632 23.1233C4.58954 23.7481 5.41486 24.1413 6.29904 24.2394C11.0365 24.7677 15.9379 24.7677 20.6754 24.2394C21.5593 24.141 22.3843 23.7477 23.0172 23.1228C23.6501 22.498 24.054 21.6782 24.1637 20.7956C24.7297 15.9564 24.7297 11.0676 24.1637 6.22828C24.0536 5.34602 23.6496 4.52655 23.0167 3.90206C22.3839 3.27757 21.5591 2.88446 20.6754 2.78615" fill="black"/>
</svg>
