<svg width="14" height="15" viewBox="0 0 14 15" fill="none" xmlns="http://www.w3.org/2000/svg">
<path d="M1.375 2.49209C1.375 1.77876 2.13917 1.32709 2.76417 1.67042L12.3808 6.96042C12.5278 7.04135 12.6504 7.16025 12.7358 7.3047C12.8211 7.44916 12.8662 7.61388 12.8662 7.78167C12.8662 7.94947 12.8211 8.11419 12.7358 8.25864C12.6504 8.4031 12.5278 8.52199 12.3808 8.60292L2.76417 13.8921C2.62147 13.9705 2.46079 14.0105 2.29797 14.008C2.13514 14.0054 1.97578 13.9605 1.83558 13.8777C1.69538 13.7949 1.57918 13.6769 1.49842 13.5355C1.41766 13.3941 1.37512 13.2341 1.375 13.0713V2.49209Z" stroke="#3A4980" stroke-width="1.5" stroke-linecap="round" stroke-linejoin="round"/>
</svg>
