<svg width="31" height="35" viewBox="0 0 31 35" fill="none" xmlns="http://www.w3.org/2000/svg">
<path d="M2 8.30939H29" stroke="#FF0000" stroke-width="3" stroke-linecap="round" stroke-linejoin="round"/>
<path d="M25.9759 8.2593V30.1668C25.9759 30.9956 25.6608 31.7906 25.0997 32.3773C24.5386 32.964 23.7774 33.2946 22.9829 33.2965H8.01693C7.22249 33.2946 6.46123 32.964 5.90013 32.3773C5.33903 31.7906 5.02392 30.9956 5.02393 30.1668V8.2593M9.51393 8.2593V5.12965C9.51392 4.30088 9.82903 3.50594 10.3901 2.91923C10.9512 2.33252 11.7125 2.00193 12.5069 2H18.4929C19.2874 2.00193 20.0486 2.33252 20.6097 2.91923C21.1708 3.50594 21.4859 4.30088 21.4859 5.12965V8.2593" stroke="#FF0000" stroke-width="3" stroke-linecap="round" stroke-linejoin="round"/>
<path d="M12.5229 15.5253V25.9575" stroke="#FF0000" stroke-width="3" stroke-linecap="round" stroke-linejoin="round"/>
<path d="M18.4761 15.5253V25.9575" stroke="#FF0000" stroke-width="3" stroke-linecap="round" stroke-linejoin="round"/>
</svg>
