<svg width="22" height="18" viewBox="0 0 22 18" fill="none" xmlns="http://www.w3.org/2000/svg">
<path d="M7.25002 14.9687C7.25002 15.3666 7.09198 15.7481 6.81068 16.0294C6.52937 16.3107 6.14784 16.4687 5.75002 16.4687C5.35219 16.4687 4.97066 16.3107 4.68936 16.0294C4.40805 15.7481 4.25002 15.3666 4.25002 14.9687M7.25002 14.9687C7.25002 14.5709 7.09198 14.1894 6.81068 13.9081C6.52937 13.6268 6.14784 13.4687 5.75002 13.4687C5.35219 13.4687 4.97066 13.6268 4.68936 13.9081C4.40805 14.1894 4.25002 14.5709 4.25002 14.9687M7.25002 14.9687H13.25M4.25002 14.9687H2.37502C2.07665 14.9687 1.7905 14.8502 1.57952 14.6392C1.36855 14.4283 1.25002 14.1421 1.25002 13.8437V10.4687M13.25 14.9687H15.5M13.25 14.9687V10.4687M1.25002 10.4687V2.83374C1.24843 2.55991 1.34848 2.29523 1.53081 2.09092C1.71313 1.88661 1.96477 1.7572 2.23702 1.72774C5.57006 1.38177 8.92997 1.38177 12.263 1.72774C12.828 1.78574 13.25 2.26574 13.25 2.83374V3.79174M1.25002 10.4687H13.25M18.5 14.9687C18.5 15.3666 18.342 15.7481 18.0607 16.0294C17.7794 16.3107 17.3978 16.4687 17 16.4687C16.6022 16.4687 16.2207 16.3107 15.9394 16.0294C15.6581 15.7481 15.5 15.3666 15.5 14.9687M18.5 14.9687C18.5 14.5709 18.342 14.1894 18.0607 13.9081C17.7794 13.6268 17.3978 13.4687 17 13.4687C16.6022 13.4687 16.2207 13.6268 15.9394 13.9081C15.6581 14.1894 15.5 14.5709 15.5 14.9687M18.5 14.9687H19.625C20.246 14.9687 20.754 14.4647 20.715 13.8447C20.5141 10.5424 19.4019 7.3603 17.502 4.65174C17.3211 4.39802 17.0848 4.18876 16.8111 4.03977C16.5373 3.89078 16.2333 3.80597 15.922 3.79174H13.25M13.25 3.79174V10.4687" stroke="#349E00" stroke-width="1.5" stroke-linecap="round" stroke-linejoin="round"/>
</svg>
